<svg xmlns="http://www.w3.org/2000/svg" width="26" height="26" fill="none"><rect width="26" height="26" fill="#2F63EA" rx="6"/><path fill="#fff" d="M14.476 6.976 13 4.063l-1.476 2.913a.243.243 0 0 1-.34.102L9.725 6.23l.885 4.651c.054.28-.286.457-.479.25L8.29 9.144l-.478 1.083a.349.349 0 0 1-.399.201l-2.275-.537.797 2.49a.358.358 0 0 1-.184.433l-.876.417 4.077 3.34a.36.36 0 0 1 .109.4l-.491 1.36 3.752-.671a.423.423 0 0 1 .493.443l-.2 3.834h.77l-.2-3.834a.423.423 0 0 1 .493-.444l3.752.672-.491-1.36a.36.36 0 0 1 .109-.4l4.077-3.34-.876-.417a.358.358 0 0 1-.184-.433l.797-2.49-2.275.537a.349.349 0 0 1-.4-.2l-.477-1.084-1.841 1.987c-.193.207-.533.03-.48-.25l.886-4.65-1.46.847a.243.243 0 0 1-.339-.102Z"/></svg>