<svg width="272" height="13" viewBox="0 0 272 13" fill="none" xmlns="http://www.w3.org/2000/svg">
<rect y="6" width="120.5" height="1" fill="#687597" fill-opacity="0.5"/>
<path d="M136.042 6.36364C136.042 7.14725 135.895 7.81842 135.602 8.37713C135.31 8.93348 134.913 9.35961 134.408 9.65554C133.906 9.95147 133.337 10.0994 132.7 10.0994C132.063 10.0994 131.493 9.95147 130.989 9.65554C130.487 9.35724 130.089 8.92992 129.795 8.37358C129.504 7.81487 129.359 7.14489 129.359 6.36364C129.359 5.58002 129.504 4.91004 129.795 4.35369C130.089 3.79498 130.487 3.36766 130.989 3.07173C131.493 2.7758 132.063 2.62784 132.7 2.62784C133.337 2.62784 133.906 2.7758 134.408 3.07173C134.913 3.36766 135.31 3.79498 135.602 4.35369C135.895 4.91004 136.042 5.58002 136.042 6.36364ZM134.717 6.36364C134.717 5.81203 134.631 5.34683 134.458 4.96804C134.288 4.58688 134.051 4.29924 133.748 4.10511C133.445 3.90862 133.096 3.81037 132.7 3.81037C132.305 3.81037 131.956 3.90862 131.653 4.10511C131.35 4.29924 131.112 4.58688 130.939 4.96804C130.768 5.34683 130.683 5.81203 130.683 6.36364C130.683 6.91525 130.768 7.38163 130.939 7.76278C131.112 8.14157 131.35 8.42921 131.653 8.62571C131.956 8.81984 132.305 8.9169 132.7 8.9169C133.096 8.9169 133.445 8.81984 133.748 8.62571C134.051 8.42921 134.288 8.14157 134.458 7.76278C134.631 7.38163 134.717 6.91525 134.717 6.36364ZM137.387 10V2.72727H140.115C140.673 2.72727 141.142 2.82434 141.521 3.01847C141.902 3.21259 142.19 3.48485 142.384 3.83523C142.58 4.18324 142.679 4.58925 142.679 5.05327C142.679 5.51965 142.579 5.92448 142.38 6.26776C142.184 6.60866 141.894 6.87263 141.51 7.05966C141.127 7.24432 140.656 7.33665 140.097 7.33665H138.154V6.2429H139.919C140.246 6.2429 140.514 6.19792 140.722 6.10795C140.93 6.01562 141.084 5.88187 141.184 5.70668C141.285 5.52912 141.336 5.31132 141.336 5.05327C141.336 4.79522 141.285 4.57505 141.184 4.39276C141.082 4.2081 140.927 4.06842 140.718 3.97372C140.51 3.87666 140.241 3.82812 139.912 3.82812H138.705V10H137.387ZM141.145 6.70455L142.945 10H141.475L139.706 6.70455H141.145Z" fill="#687597" fill-opacity="0.5"/>
<rect x="151.5" y="6" width="120.5" height="1" fill="#687597" fill-opacity="0.5"/>
</svg>
