<svg width="90" height="26" viewBox="0 0 90 26" fill="none" xmlns="http://www.w3.org/2000/svg">
<rect width="26" height="26" rx="6" fill="#2F63EA"/>
<path d="M14.4762 6.97602L13 4.0625L11.5238 6.97602C11.4599 7.1022 11.3054 7.1487 11.1842 7.07825L9.72548 6.23024L10.6103 10.8812C10.6636 11.1613 10.3238 11.3383 10.1313 11.1307L8.2896 9.14426L7.8122 10.2271C7.74368 10.3825 7.5765 10.4668 7.41334 10.4283L5.13766 9.89053L5.93496 12.3811C5.98965 12.5519 5.91059 12.7374 5.75059 12.8137L4.875 13.231L8.95199 16.5711C9.06893 16.6669 9.11277 16.8278 9.06098 16.9711L8.56977 18.3305L12.322 17.6595C12.5882 17.6119 12.8288 17.8285 12.8145 18.103L12.6148 21.9375H13.3852L13.1855 18.103C13.1712 17.8285 13.4118 17.6119 13.678 17.6595L17.4302 18.3305L16.939 16.9711C16.8872 16.8278 16.9311 16.6669 17.048 16.5711L21.125 13.231L20.2494 12.8137C20.0894 12.7374 20.0103 12.5519 20.065 12.3811L20.8623 9.89053L18.5867 10.4283C18.4235 10.4668 18.2563 10.3825 18.1878 10.2271L17.7104 9.14426L15.8687 11.1307C15.6762 11.3383 15.3364 11.1613 15.3897 10.8812L16.2745 6.23024L14.8158 7.07825C14.6946 7.1487 14.5401 7.1022 14.4762 6.97602Z" fill="white"/>
<path d="M40.4 20.22C38.84 20.22 37.5 19.92 36.38 19.32C35.26 18.72 34.4 17.8733 33.8 16.78C33.2133 15.6867 32.92 14.4067 32.92 12.94C32.92 11.8467 33.0867 10.8533 33.42 9.96C33.7667 9.06667 34.26 8.3 34.9 7.66C35.5533 7.02 36.34 6.53333 37.26 6.2C38.1933 5.85333 39.24 5.68 40.4 5.68C41.0133 5.68 41.6467 5.75333 42.3 5.9C42.9667 6.03333 43.5533 6.24 44.06 6.52C44.4333 6.72 44.6933 6.97333 44.84 7.28C44.9867 7.58667 45.0333 7.9 44.98 8.22C44.94 8.54 44.8267 8.82667 44.64 9.08C44.4533 9.33333 44.2133 9.50667 43.92 9.6C43.6267 9.68 43.3067 9.63333 42.96 9.46C42.56 9.27333 42.16 9.13333 41.76 9.04C41.3733 8.93333 40.9667 8.88 40.54 8.88C39.7133 8.88 39.02 9.04 38.46 9.36C37.9133 9.66667 37.5 10.12 37.22 10.72C36.94 11.32 36.8 12.06 36.8 12.94C36.8 13.82 36.94 14.5667 37.22 15.18C37.5 15.78 37.9133 16.24 38.46 16.56C39.02 16.8667 39.7133 17.02 40.54 17.02C40.8867 17.02 41.26 16.98 41.66 16.9C42.06 16.8067 42.4533 16.6667 42.84 16.48C43.24 16.3067 43.5933 16.26 43.9 16.34C44.22 16.42 44.4733 16.58 44.66 16.82C44.86 17.06 44.9867 17.34 45.04 17.66C45.0933 17.9667 45.0467 18.2733 44.9 18.58C44.7667 18.8867 44.5267 19.1333 44.18 19.32C43.7133 19.6 43.1333 19.82 42.44 19.98C41.76 20.14 41.08 20.22 40.4 20.22ZM48.2895 20.18C47.7029 20.18 47.2495 20.02 46.9295 19.7C46.6095 19.3667 46.4495 18.9 46.4495 18.3V7.6C46.4495 6.98667 46.6095 6.52 46.9295 6.2C47.2495 5.88 47.7029 5.72 48.2895 5.72C48.8895 5.72 49.3429 5.88 49.6495 6.2C49.9695 6.52 50.1295 6.98667 50.1295 7.6V18.3C50.1295 18.9 49.9762 19.3667 49.6695 19.7C49.3629 20.02 48.9029 20.18 48.2895 20.18ZM59.2 20.22C57.64 20.22 56.3 19.92 55.18 19.32C54.06 18.72 53.2 17.8733 52.6 16.78C52.0133 15.6867 51.72 14.4067 51.72 12.94C51.72 11.8467 51.8867 10.8533 52.22 9.96C52.5667 9.06667 53.06 8.3 53.7 7.66C54.3533 7.02 55.14 6.53333 56.06 6.2C56.9933 5.85333 58.04 5.68 59.2 5.68C59.8133 5.68 60.4467 5.75333 61.1 5.9C61.7667 6.03333 62.3533 6.24 62.86 6.52C63.2333 6.72 63.4933 6.97333 63.64 7.28C63.7867 7.58667 63.8333 7.9 63.78 8.22C63.74 8.54 63.6267 8.82667 63.44 9.08C63.2533 9.33333 63.0133 9.50667 62.72 9.6C62.4267 9.68 62.1067 9.63333 61.76 9.46C61.36 9.27333 60.96 9.13333 60.56 9.04C60.1733 8.93333 59.7667 8.88 59.34 8.88C58.5133 8.88 57.82 9.04 57.26 9.36C56.7133 9.66667 56.3 10.12 56.02 10.72C55.74 11.32 55.6 12.06 55.6 12.94C55.6 13.82 55.74 14.5667 56.02 15.18C56.3 15.78 56.7133 16.24 57.26 16.56C57.82 16.8667 58.5133 17.02 59.34 17.02C59.6867 17.02 60.06 16.98 60.46 16.9C60.86 16.8067 61.2533 16.6667 61.64 16.48C62.04 16.3067 62.3933 16.26 62.7 16.34C63.02 16.42 63.2733 16.58 63.46 16.82C63.66 17.06 63.7867 17.34 63.84 17.66C63.8933 17.9667 63.8467 18.2733 63.7 18.58C63.5667 18.8867 63.3267 19.1333 62.98 19.32C62.5133 19.6 61.9333 19.82 61.24 19.98C60.56 20.14 59.88 20.22 59.2 20.22ZM71.9008 20.22C70.3408 20.22 69.0008 19.92 67.8808 19.32C66.7608 18.72 65.9008 17.8733 65.3008 16.78C64.7141 15.6867 64.4208 14.4067 64.4208 12.94C64.4208 11.8467 64.5874 10.8533 64.9208 9.96C65.2674 9.06667 65.7608 8.3 66.4008 7.66C67.0541 7.02 67.8408 6.53333 68.7608 6.2C69.6941 5.85333 70.7408 5.68 71.9008 5.68C72.5141 5.68 73.1474 5.75333 73.8008 5.9C74.4674 6.03333 75.0541 6.24 75.5608 6.52C75.9341 6.72 76.1941 6.97333 76.3408 7.28C76.4874 7.58667 76.5341 7.9 76.4808 8.22C76.4408 8.54 76.3274 8.82667 76.1408 9.08C75.9541 9.33333 75.7141 9.50667 75.4208 9.6C75.1274 9.68 74.8074 9.63333 74.4608 9.46C74.0608 9.27333 73.6608 9.13333 73.2608 9.04C72.8741 8.93333 72.4674 8.88 72.0408 8.88C71.2141 8.88 70.5208 9.04 69.9608 9.36C69.4141 9.66667 69.0008 10.12 68.7208 10.72C68.4408 11.32 68.3008 12.06 68.3008 12.94C68.3008 13.82 68.4408 14.5667 68.7208 15.18C69.0008 15.78 69.4141 16.24 69.9608 16.56C70.5208 16.8667 71.2141 17.02 72.0408 17.02C72.3874 17.02 72.7608 16.98 73.1608 16.9C73.5608 16.8067 73.9541 16.6667 74.3408 16.48C74.7408 16.3067 75.0941 16.26 75.4008 16.34C75.7208 16.42 75.9741 16.58 76.1608 16.82C76.3608 17.06 76.4874 17.34 76.5408 17.66C76.5941 17.9667 76.5474 18.2733 76.4008 18.58C76.2674 18.8867 76.0274 19.1333 75.6808 19.32C75.2141 19.6 74.6341 19.82 73.9408 19.98C73.2608 20.14 72.5808 20.22 71.9008 20.22ZM84.6016 20.22C83.0416 20.22 81.7016 19.92 80.5816 19.32C79.4616 18.72 78.6016 17.8733 78.0016 16.78C77.4149 15.6867 77.1216 14.4067 77.1216 12.94C77.1216 11.8467 77.2882 10.8533 77.6216 9.96C77.9682 9.06667 78.4616 8.3 79.1016 7.66C79.7549 7.02 80.5416 6.53333 81.4616 6.2C82.3949 5.85333 83.4416 5.68 84.6016 5.68C85.2149 5.68 85.8482 5.75333 86.5016 5.9C87.1682 6.03333 87.7549 6.24 88.2616 6.52C88.6349 6.72 88.8949 6.97333 89.0416 7.28C89.1882 7.58667 89.2349 7.9 89.1816 8.22C89.1416 8.54 89.0282 8.82667 88.8416 9.08C88.6549 9.33333 88.4149 9.50667 88.1216 9.6C87.8282 9.68 87.5082 9.63333 87.1616 9.46C86.7616 9.27333 86.3616 9.13333 85.9616 9.04C85.5749 8.93333 85.1682 8.88 84.7416 8.88C83.9149 8.88 83.2216 9.04 82.6616 9.36C82.1149 9.66667 81.7016 10.12 81.4216 10.72C81.1416 11.32 81.0016 12.06 81.0016 12.94C81.0016 13.82 81.1416 14.5667 81.4216 15.18C81.7016 15.78 82.1149 16.24 82.6616 16.56C83.2216 16.8667 83.9149 17.02 84.7416 17.02C85.0882 17.02 85.4616 16.98 85.8616 16.9C86.2616 16.8067 86.6549 16.6667 87.0416 16.48C87.4416 16.3067 87.7949 16.26 88.1016 16.34C88.4216 16.42 88.6749 16.58 88.8616 16.82C89.0616 17.06 89.1882 17.34 89.2416 17.66C89.2949 17.9667 89.2482 18.2733 89.1016 18.58C88.9682 18.8867 88.7282 19.1333 88.3816 19.32C87.9149 19.6 87.3349 19.82 86.6416 19.98C85.9616 20.14 85.2816 20.22 84.6016 20.22Z" fill="#2F63EA"/>
</svg>
