<svg width="24" height="24" viewBox="0 0 24 24" fill="none" xmlns="http://www.w3.org/2000/svg">
<path fill-rule="evenodd" clip-rule="evenodd" d="M5.9124 4.06647C7.83714 2.58957 10.2332 1.86275 12.654 2.02142C15.0749 2.1801 17.3556 3.21344 19.0711 4.92894C20.7866 6.64444 21.8199 8.92508 21.9786 11.346C22.1373 13.7669 21.4104 16.1629 19.9335 18.0876C18.4566 20.0123 16.3304 21.3345 13.9509 21.8078C11.7101 22.2536 9.38864 21.9178 7.37096 20.8641L3.25884 21.9659C2.91375 22.0584 2.54554 21.9597 2.29292 21.7071C2.04029 21.4545 1.94163 21.0863 2.0341 20.7412L3.13594 16.629C2.08219 14.6114 1.74644 12.2899 2.19217 10.0491C2.66548 7.66963 3.98767 5.54338 5.9124 4.06647ZM12.5232 4.01714C10.5865 3.8902 8.66972 4.47166 7.12993 5.65318C5.59014 6.8347 4.53238 8.53571 4.15374 10.4393C3.7751 12.3428 4.10139 14.3192 5.07182 16L5.27892 16.3587L4.41424 19.5858L7.6413 18.7211L8.00001 18.9282C9.68085 19.8986 11.6572 20.2249 13.5607 19.8463C15.4643 19.4676 17.1653 18.4099 18.3468 16.8701C19.5283 15.3303 20.1098 13.4135 19.9829 11.4768C19.8559 9.54007 19.0293 7.71555 17.6569 6.34315C16.2845 4.97076 14.4599 4.14408 12.5232 4.01714Z" fill="white"/>
<path d="M9.8654 7.33535C10.0073 7.67911 10.5607 9.21852 10.5936 9.49751C10.7691 10.1968 9.62052 10.3454 9.59675 11.0668C9.57035 11.8679 10.2381 12.2851 10.7045 12.8204C11.2478 13.4439 12.2887 14.5606 13.1823 14.6389C13.8228 14.695 14.0341 13.4987 14.8234 13.5679C15.2882 13.6086 16.2164 13.752 16.821 14.8473C17.0451 15.2531 17.065 15.6637 16.8456 16.009C16.2844 16.8924 15.2731 17.1327 14.1853 16.9356C12.378 16.6081 11.1067 15.4468 9.71248 14.3349C9.71248 14.3349 6.80862 11.4889 7.01001 9.18352C7.07992 8.38325 7.44662 7.23605 8.4577 7.04635C9.00825 6.94305 9.67489 7.00116 9.8654 7.33535Z" fill="white"/>
</svg>
