<svg xmlns="http://www.w3.org/2000/svg" width="20" height="20" fill="none"><path fill="#fff" fill-rule="evenodd" d="M3.912 2.066a10 10 0 1 1 1.459 16.798l-4.112 1.102A1 1 0 0 1 .034 18.74l1.102-4.112A10 10 0 0 1 3.912 2.066Zm6.611-.049A8 8 0 0 0 3.072 14l.207.359-.865 3.227 3.227-.865.359.207a8 8 0 1 0 4.523-14.91Z" clip-rule="evenodd"/><path fill="#fff" d="M7.865 5.335c.142.344.696 1.884.729 2.163.175.699-.973.847-.997 1.569-.027.8.641 1.218 1.108 1.753.543.624 1.584 1.74 2.477 1.819.64.056.852-1.14 1.641-1.071.465.04 1.393.184 1.998 1.28.224.405.244.816.025 1.161-.562.883-1.573 1.124-2.66.927-1.808-.328-3.08-1.49-4.474-2.601 0 0-2.903-2.846-2.702-5.151.07-.8.437-1.948 1.448-2.138.55-.103 1.217-.045 1.407.29Z"/></svg>